<svg width="16" height="16" viewBox="0 0 16 16" fill="none" xmlns="http://www.w3.org/2000/svg">
<path d="M7.79836 1.99283C4.74476 2.0096 2.29723 2.68991 1.5702 5.86642C0.918327 8.71493 1.71345 10.8657 2.20684 11.7748C2.71083 11.7093 3.68231 11.3778 4.15641 11.755C5.42473 12.7638 5.9543 13.5843 7.041 13.3862C7.5847 13.2871 8.11356 12.8563 8.53657 12.343C9.03382 12.4416 9.57328 12.4883 10.1219 12.5016C10.3376 12.5068 10.5551 12.5062 10.7729 12.5007C10.8505 12.7209 10.9354 12.9184 11.0266 13.0912C11.2378 13.4908 11.4797 13.784 11.8221 13.8658C12.5716 14.0448 13.4858 14.0596 14.534 13.8784L14.6229 13.8909C14.6242 13.8815 14.6253 13.8719 14.6266 13.8624C14.6283 13.8622 14.6298 13.8619 14.6315 13.8616L14.6287 13.8464C14.7654 12.8074 14.5936 11.5654 14.1195 10.4196C14.1214 10.4187 14.1235 10.4179 14.1253 10.4172L13.9221 9.94956C13.4583 10.1511 12.1721 10.38 10.8563 10.4805C10.7551 9.60864 10.7315 8.58489 10.8249 7.46806C11.8815 6.93847 12.789 6.78486 13.7254 6.52294C13.694 6.36631 13.6596 6.2103 13.6222 6.05501C12.1022 6.43896 10.1247 7.1112 8.41642 7.88198C8.28607 7.94081 8.09144 8.12506 7.89965 8.38948C7.73758 8.61291 7.57278 8.88879 7.4128 9.1787C7.5887 9.4147 7.69322 9.70668 7.69322 10.0221C7.69322 10.1453 7.67719 10.265 7.64728 10.3791C7.79839 10.4188 7.8971 10.459 7.98774 10.4839C8.12597 10.522 8.29649 10.5478 8.77099 10.5255L8.79487 11.0348C8.29437 11.0583 8.04581 11.0288 7.85238 10.9756C7.69574 10.9324 7.60544 10.8891 7.42382 10.85C7.36495 10.9313 7.29771 11.0062 7.22319 11.0735L8.41435 11.669L8.18633 12.1251L6.68934 11.3766C6.55571 11.4175 6.41671 11.4383 6.27693 11.4383C5.4977 11.4383 4.86066 10.8013 4.86066 10.022C4.86066 9.24294 5.4977 8.6058 6.27693 8.6058C6.55208 8.6058 6.8093 8.68559 7.02726 8.82271C7.1739 8.56201 7.327 8.31054 7.48693 8.09005C7.70259 7.79273 7.92398 7.5448 8.20673 7.41719C9.94476 6.63296 11.9345 5.95573 13.489 5.56269C12.9457 3.77606 11.6823 1.97148 7.79836 1.99283ZM10.2918 7.7614C10.2265 8.76977 10.2533 9.69974 10.3464 10.513C10.0413 10.5287 9.73827 10.5375 9.4463 10.5385C9.44715 10.5259 9.4478 10.5136 9.44811 10.5016C9.47054 9.59879 9.24587 8.46227 9.8062 8.07462C9.96464 7.96498 10.1266 7.86052 10.2918 7.7614V7.7614ZM6.27687 9.11567C5.77325 9.11567 5.37046 9.51846 5.37046 10.0221C5.37046 10.5257 5.77325 10.9285 6.27687 10.9285C6.78049 10.9285 7.18328 10.5257 7.18328 10.0221C7.18328 9.51846 6.78049 9.11567 6.27687 9.11567ZM13.6349 10.583C13.7674 10.9007 13.876 11.2278 13.9598 11.5616C13.6446 11.6419 13.287 11.7169 12.9023 11.7813C12.8237 11.4857 12.7068 11.1907 12.5228 10.8093C12.9425 10.7448 13.3216 10.669 13.6348 10.583L13.6349 10.583ZM11.9918 10.8826C12.1989 11.2944 12.3227 11.579 12.4028 11.8564C11.9841 11.9128 11.5633 11.9524 11.1415 11.9751C11.0922 11.8019 11.0462 11.6151 11.0048 11.4157C10.9755 11.2734 10.9492 11.1304 10.9262 10.987C11.2913 10.9596 11.65 10.9245 11.9918 10.8826H11.9918ZM10.4149 11.0199C10.4421 11.1929 10.4724 11.3595 10.5056 11.5192C10.5384 11.6784 10.5757 11.8366 10.6173 11.9937C10.4553 11.9961 10.294 11.9958 10.1343 11.9919C9.69513 11.9813 9.27113 11.943 8.87923 11.8761C9.06589 11.5903 9.21522 11.3022 9.31402 11.0479C9.67021 11.0497 10.0414 11.0398 10.4149 11.0199H10.4149ZM14.066 12.0608C14.1484 12.5329 14.1785 12.9959 14.1559 13.422C13.7873 13.4733 13.4406 13.4974 13.1178 13.4973C13.0788 12.9877 13.05 12.6033 13.0031 12.2825C13.3862 12.2178 13.7445 12.1424 14.0659 12.0608L14.066 12.0608ZM12.5065 12.3582C12.5457 12.6416 12.5695 12.9939 12.6053 13.4751C12.3671 13.4541 12.1449 13.4188 11.9405 13.37C11.8471 13.3477 11.6555 13.1903 11.4774 12.8531C11.4196 12.7438 11.3629 12.618 11.3084 12.4774C11.7168 12.4524 12.1199 12.4111 12.5065 12.3582V12.3582Z" fill="#1D78EB"/>
</svg>
