<svg width="16" height="16" viewBox="0 0 16 16" fill="none" xmlns="http://www.w3.org/2000/svg">
<path d="M6.49609 14.6823C7.32609 14.6823 7.99609 14.0115 7.99609 13.1805V6.33875H6.66276L4.99609 13.1805C4.99609 14.0115 5.66609 14.6823 6.49609 14.6823Z" stroke="#1D78EB" stroke-width="1.33333" stroke-miterlimit="2" stroke-linecap="round" stroke-linejoin="round"/>
<path d="M6.66226 6.33875H5.32892L2.22226 12.6465C1.85226 13.5175 2.38226 14.5622 3.32226 14.6723C3.53251 14.6971 3.74564 14.677 3.94757 14.6133C4.1495 14.5497 4.33566 14.4439 4.49378 14.3029C4.65189 14.1619 4.77837 13.989 4.86486 13.7955C4.95136 13.6021 4.99592 13.3924 4.99559 13.1805M9.49559 14.6823C8.66559 14.6823 7.99559 14.0115 7.99559 13.1805V6.33875H9.32893L10.9956 13.1805C10.9956 14.0115 10.3256 14.6823 9.49559 14.6823Z" stroke="#1D78EB" stroke-width="1.33333" stroke-miterlimit="2" stroke-linecap="round" stroke-linejoin="round"/>
<path d="M9.32813 6.33875H10.6615L13.7681 12.6465C14.1381 13.5176 13.6081 14.5622 12.6681 14.6723C12.4579 14.6971 12.2447 14.677 12.0428 14.6133C11.8409 14.5497 11.6547 14.4439 11.4966 14.3029C11.3385 14.1619 11.212 13.989 11.1255 13.7955C11.039 13.6021 10.9945 13.3924 10.9948 13.1805M5.34812 4.33629C5.33479 4.22616 5.32812 4.11602 5.32812 4.00255C5.32812 2.52741 6.52146 1.33261 7.99479 1.33261C9.46813 1.33261 10.6615 2.52741 10.6615 4.00255C10.6615 4.11602 10.6548 4.22616 10.6415 4.33629H5.34812Z" stroke="#1D78EB" stroke-width="1.33333" stroke-miterlimit="2" stroke-linecap="round" stroke-linejoin="round"/>
</svg>
