<svg width="16" height="16" viewBox="0 0 16 16" fill="none" xmlns="http://www.w3.org/2000/svg">
<path d="M7.99112 1.33302C7.11489 1.33151 6.24706 1.50386 5.43789 1.84007C4.62872 2.17628 3.89429 2.66967 3.27713 3.29168C0.678458 5.89035 0.678458 10.1204 3.27713 12.7204C4.54046 13.9837 6.21379 14.679 7.99112 14.679C9.76846 14.679 11.4425 13.9837 12.7051 12.7204C15.3045 10.121 15.3045 5.89102 12.7051 3.29168C12.088 2.66967 11.3535 2.17628 10.5444 1.84007C9.73519 1.50386 8.86736 1.33151 7.99112 1.33302V1.33302ZM11.7625 11.7777C11.0635 12.4789 10.1823 12.9706 9.21846 13.197L9.21779 13.1724C9.21667 12.6572 9.31186 12.1465 9.49846 11.6664L8.25646 11.1804C7.98915 11.8679 7.86396 12.6024 7.88846 13.3397C6.50882 13.316 5.19275 12.7554 4.21979 11.777C3.24501 10.8023 2.6875 9.48668 2.66512 8.10835C2.71846 8.10968 2.77179 8.11168 2.82513 8.11168C3.50656 8.11354 4.18229 7.98735 4.81713 7.73968L4.33046 6.49835C3.84553 6.68537 3.3295 6.77858 2.80979 6.77302C3.03369 5.81161 3.5221 4.93201 4.21979 4.23368C4.94411 3.50597 5.86393 3.00392 6.86779 2.78835C6.86141 3.23192 6.78097 3.6713 6.62979 4.08835L7.88379 4.54235C8.09484 3.96539 8.20359 3.35603 8.20512 2.74168C8.20512 2.71968 8.20246 2.69835 8.20179 2.67635C9.54379 2.72902 10.8018 3.27368 11.7631 4.23368C12.712 5.18334 13.2656 6.45737 13.3125 7.79902C12.6792 7.79168 12.0498 7.8985 11.4545 8.11435L11.9105 9.36768C12.324 9.21591 12.76 9.13456 13.2005 9.12702C12.9878 10.1311 12.4883 11.0519 11.7625 11.7777V11.7777Z" fill="#1D78EB"/>
<path d="M9.40794 9.41959C9.17875 9.6484 8.97202 9.89865 8.7906 10.1669L9.8946 10.9136C10.0279 10.7163 10.1813 10.5309 10.3499 10.3629C10.5866 10.1265 10.8502 9.91868 11.1353 9.74359L10.4359 8.60826C10.0627 8.83761 9.71773 9.10991 9.40794 9.41959V9.41959ZM5.63727 5.64892C5.46812 5.81719 5.28353 5.96919 5.08594 6.10292L5.83194 7.20826C6.10015 7.02648 6.35059 6.81979 6.57994 6.59092C6.8892 6.28076 7.16146 5.93579 7.39127 5.56292L6.25594 4.86426C6.08057 5.14873 5.87298 5.41202 5.63727 5.64892V5.64892Z" fill="#1D78EB"/>
</svg>
