<svg width="16" height="16" viewBox="0 0 16 16" fill="none" xmlns="http://www.w3.org/2000/svg">
<path d="M8.00313 1.33301C4.31853 1.33301 1.32812 4.32341 1.32812 8.00801C1.32812 11.6926 4.31853 14.683 8.00313 14.683C11.6877 14.683 14.6781 11.6926 14.6781 8.00801C14.6781 4.32341 11.6877 1.33301 8.00313 1.33301ZM3.48415 5.17113C4.06488 5.75186 4.46537 6.49946 4.60555 7.34051H2.70985C2.80954 6.57026 3.0736 5.83043 3.48415 5.17113ZM2.70985 8.67551H4.60555C4.46791 9.49814 4.0757 10.2569 3.48415 10.8449C3.0736 10.1856 2.80954 9.44576 2.70985 8.67551V8.67551ZM7.33563 13.3013C6.18085 13.1544 5.13955 12.6338 4.33855 11.8728C5.23123 11.0264 5.80222 9.89627 5.9539 8.67551H7.33563V13.3013ZM7.33563 7.34051H5.9539C5.79986 6.11712 5.22667 4.98489 4.33188 4.13651C5.15734 3.35652 6.2091 2.85868 7.33563 2.71473V7.34051ZM13.2964 7.34051H11.4007C11.5409 6.49946 11.9414 5.75186 12.5221 5.17113C12.9226 5.81861 13.1963 6.55286 13.2964 7.34051ZM8.67063 2.71473C9.8254 2.86158 10.8667 3.37556 11.6744 4.13651C10.7796 4.98489 10.2064 6.11712 10.0524 7.34051H8.67063V2.71473ZM8.67063 13.3013V8.67551H10.0524C10.2069 9.89539 10.7774 11.0246 11.6677 11.8728C10.8462 12.6558 9.79621 13.1562 8.67063 13.3013V13.3013ZM12.5221 10.8449C11.9317 10.256 11.5397 9.49769 11.4007 8.67551H13.2964C13.1967 9.44576 12.9326 10.1856 12.5221 10.8449Z" fill="#1D78EB"/>
</svg>
