<svg width="16" height="16" viewBox="0 0 16 16" fill="none" xmlns="http://www.w3.org/2000/svg">
<path d="M12.7248 3.2868C12.1067 2.66484 11.3711 2.17147 10.5607 1.83526C9.75028 1.49905 8.8811 1.32668 8.0035 1.32813C7.12571 1.32676 6.25636 1.49916 5.44574 1.83536C4.63512 2.17156 3.89932 2.66489 3.2809 3.2868C0.677199 5.88547 0.677199 10.1155 3.2809 12.7148C3.89933 13.3369 4.63523 13.8303 5.44599 14.1665C6.25674 14.5027 7.12625 14.675 8.00417 14.6735C8.88172 14.675 9.75087 14.5027 10.5613 14.1666C11.3717 13.8306 12.1073 13.3373 12.7254 12.7155C15.3291 10.1168 15.3291 5.8868 12.7248 3.2868V3.2868ZM8.1237 2.66747H7.88397C7.9247 2.6668 7.96343 2.66147 8.00417 2.66147C8.0449 2.66147 8.08297 2.6668 8.1237 2.66747ZM12.1718 11.3341H10.674L9.83391 13.0115C9.24787 13.2276 8.62825 13.3389 8.0035 13.3401C7.3776 13.339 6.75682 13.2275 6.16976 13.0108L5.33168 11.3408H3.83917C3.28854 10.6574 2.91617 9.84838 2.75536 8.98613L3.99611 7.33413L3.18407 5.71213C3.44318 5.16186 3.79537 4.66029 4.22516 4.22947C4.82669 3.62684 5.564 3.17674 6.37543 2.9168L8.00283 4.0008L9.6309 2.91747C10.4421 3.17759 11.1793 3.62741 11.7812 4.22947C12.2105 4.65978 12.5624 5.16065 12.8216 5.71013L12.0096 7.33413L13.2503 8.98613C13.0902 9.8456 12.7197 10.6522 12.1718 11.3341Z" fill="#1D78EB"/>
<path d="M5.66406 7.33366L6.66406 10.0003H9.33073L10.3307 7.33366L7.9974 5.66699L5.66406 7.33366Z" fill="#1D78EB"/>
</svg>
