<svg width="16" height="16" viewBox="0 0 16 16" fill="none" xmlns="http://www.w3.org/2000/svg">
<path d="M2 6C2 6 5.95409 7 8.5 7C11.0459 7 15 6 15 6V11H2V6Z" fill="#1D78EB"/>
<path d="M14.098 5.75927C14.2784 5.89052 14.3226 5.97392 14.3327 6C14.3226 6.02608 14.2784 6.10948 14.098 6.24073C13.852 6.4197 13.4532 6.60859 12.9006 6.77862C11.8036 7.11617 10.2476 7.335 8.5 7.335C6.75241 7.335 5.19641 7.11617 4.09937 6.77862C3.54679 6.60859 3.14803 6.4197 2.902 6.24073C2.72158 6.10948 2.67738 6.02608 2.66726 6C2.67738 5.97392 2.72158 5.89052 2.902 5.75927C3.14803 5.5803 3.54679 5.39141 4.09937 5.22138C5.19641 4.88383 6.75241 4.665 8.5 4.665C10.2476 4.665 11.8036 4.88383 12.9006 5.22138C13.4532 5.39141 13.852 5.5803 14.098 5.75927Z" stroke="#1D78EB" stroke-width="1.33"/>
<ellipse cx="8.5" cy="11" rx="6.5" ry="2" fill="#1D78EB"/>
</svg>
