<svg width="16" height="16" viewBox="0 0 16 16" fill="none" xmlns="http://www.w3.org/2000/svg">
<path d="M12.1514 3.18089L11.5607 3.09475C11.3392 3.05783 11.13 3.1973 11.0972 3.40649L10.9619 4.24738C10.9413 4.37454 10.8142 4.46068 10.6747 4.44017L10.6706 4.43197C10.5312 4.41146 10.4368 4.2884 10.4573 4.16124L10.6993 2.64354C10.7322 2.43845 10.5763 2.24156 10.3548 2.20464L9.48933 2.07338C9.26784 2.03646 9.05865 2.17593 9.02583 2.38512L8.78383 3.90282C8.76332 4.02998 8.63617 4.11612 8.49671 4.09561L8.4926 4.08741C8.35314 4.0669 8.2588 3.94384 8.27931 3.81668L8.58284 1.9093C8.61566 1.70421 8.45979 1.50732 8.2383 1.4704L7.37283 1.33094C7.15133 1.29402 6.94214 1.43348 6.90933 1.64268L6.6058 3.55006C6.58529 3.67722 6.45814 3.76336 6.31868 3.74285L6.31458 3.73465C6.17512 3.71414 6.08078 3.59108 6.10128 3.46392L6.31458 2.1267C6.34739 1.92161 6.19152 1.72472 5.97003 1.6878L5.23582 1.56885C5.01432 1.53193 4.80513 1.6755 4.77232 1.88059C4.36624 4.42376 4.4893 4.57963 4.54262 5.33438C4.11604 5.64612 3.72227 6.45009 3.5664 7.43454C3.34901 8.79227 3.67305 9.90798 4.21448 9.99412C4.39085 10.0228 4.53031 10.1459 4.59184 10.3059C4.59594 10.3059 4.60004 10.3059 4.60415 10.3018C4.53442 10.3223 4.46469 10.3469 4.40316 10.392C4.25139 10.4946 4.14885 10.6586 4.12014 10.8391L3.77559 13.0131C3.72227 13.3536 3.94376 13.6858 4.27601 13.7679C4.30472 13.7761 4.33753 13.7802 4.36624 13.7843C4.35394 13.7843 4.34163 13.7802 4.32523 13.7802C4.32113 13.7802 4.31702 13.7761 4.30882 13.7761C4.41547 13.9237 4.57543 14.0304 4.77232 14.0591L8.58694 14.6662C8.97251 14.7277 9.33756 14.4611 9.39909 14.0755C9.44011 13.8007 9.48113 13.5505 9.51394 13.3208C9.60828 13.1813 9.66981 13.0213 9.69852 12.8408C9.72723 12.648 9.71493 12.4717 9.66571 12.3076C9.8872 10.8678 9.8913 10.9868 10.1825 10.8965C10.3917 10.8309 10.5066 10.6504 10.6091 10.4617C11.5443 8.67332 12.1391 5.84301 12.4959 3.61979C12.5287 3.4147 12.3729 3.2137 12.1514 3.18089ZM5.88389 9.81774C5.46141 9.95721 4.87076 9.31321 4.55903 8.37798C4.24729 7.44275 4.33753 6.56904 4.75591 6.42958C5.17839 6.29012 5.76904 6.93411 6.08078 7.86934C6.39251 8.80458 6.30227 9.67828 5.88389 9.81774ZM10.1046 9.68648C10.0718 9.7275 10.0226 9.75211 9.97334 9.76032C9.63699 9.81364 8.29572 9.99412 6.6017 9.64957C6.48275 9.62495 6.41302 9.5101 6.44173 9.39115C6.54017 8.97685 6.49915 8.41079 6.29407 7.79961C6.02335 6.97923 5.55165 6.37626 5.09225 6.22449C4.98561 6.18757 4.93229 6.06861 4.9692 5.96196C5.10046 5.57639 5.26453 5.1498 5.46962 4.66577C5.50243 4.58784 5.58446 4.53451 5.6706 4.53451C6.42122 4.55502 9.90771 4.69039 11.1998 5.55178C11.2613 5.59279 11.29 5.66253 11.29 5.73226C11.2695 6.2573 11.1423 8.43951 10.1046 9.68648Z" fill="#1D78EB"/>
</svg>
