<svg width="16" height="16" viewBox="0 0 16 16" fill="none" xmlns="http://www.w3.org/2000/svg">
<path d="M1.46773 7.46667C1.33378 9.06667 1.80259 10.4 2.80718 11.6C3.81178 12.8 5.15123 13.3333 6.75858 13.3333H13.4559C13.7907 13.3333 14.1256 13.2 14.3935 12.9333C14.6614 12.6667 14.7953 12.3333 14.7953 12V11.4667C14.7953 11.0667 14.7283 10.6 14.6614 10H9.1696C8.49987 10 7.96409 9.73333 7.49528 9.26667C7.02647 8.8 6.75858 8.2 6.75858 7.6C6.75858 6.53333 7.22739 5.8 8.23198 5.4L11.4467 4C10.3081 3.2 8.96868 2.73333 7.42831 2.66667C5.95491 2.53333 4.61545 3 3.40994 3.93333C2.20443 4.86667 1.60168 6 1.46773 7.46667ZM8.09803 7.6C8.09803 7.86667 8.23198 8.13333 8.4329 8.33333C8.63382 8.53333 8.90171 8.66667 9.1696 8.66667H14.3935C13.9916 7.2 13.3889 6 12.5182 5.06667L8.76776 6.6C8.29895 6.73333 8.09803 7.06667 8.09803 7.6Z" fill="#1D78EB"/>
</svg>
