<svg width="16" height="16" viewBox="0 0 16 16" fill="none" xmlns="http://www.w3.org/2000/svg">
<path d="M3.28099 12.7203C4.5465 13.9837 6.22272 14.679 8.00313 14.679C9.78353 14.679 11.4604 13.9837 12.7253 12.7203C15.3291 10.121 15.3291 5.89167 12.7253 3.29167C11.4604 2.02901 9.78286 1.33301 8.00313 1.33301C6.22339 1.33301 4.54584 2.02901 3.28099 3.29167C0.67717 5.89101 0.67717 10.121 3.28099 12.7203ZM11.781 11.7777C11.0811 12.4783 10.1992 12.9698 9.23458 13.197C9.22857 12.129 9.62592 11.0997 10.3639 10.363C11.1405 9.58767 12.1883 9.14434 13.2201 9.12901C13.0074 10.1324 12.5074 11.0525 11.781 11.7777V11.7777ZM13.3336 7.80101C11.9152 7.78701 10.4727 8.36967 9.41957 9.42034C8.39647 10.4417 7.86555 11.8737 7.90829 13.341C6.52305 13.3199 5.201 12.7588 4.22462 11.7777C3.24701 10.8013 2.68847 9.48335 2.66727 8.10301C2.71869 8.10434 2.77011 8.11234 2.82153 8.11234C4.23396 8.11234 5.59965 7.57634 6.58602 6.59234C7.64117 5.53901 8.22684 4.09967 8.20881 2.67701C9.55438 2.72525 10.8313 3.28218 11.781 4.23501C12.7318 5.18476 13.2867 6.45905 13.3336 7.80101V7.80101ZM4.22528 4.23501C4.95107 3.50709 5.87268 3.00482 6.87852 2.78901C6.8665 3.82567 6.42107 4.87167 5.64239 5.64967C4.90512 6.38501 3.87802 6.78034 2.81218 6.77701C3.03596 5.81448 3.52551 4.93384 4.22528 4.23501V4.23501Z" fill="#1D78EB"/>
</svg>
