<svg width="16" height="16" viewBox="0 0 16 16" fill="none" xmlns="http://www.w3.org/2000/svg">
<path d="M13.0391 6.29777C12.6942 5.32989 12.1324 4.52044 11.3536 3.8694C10.5748 3.21881 9.67925 2.82677 8.66685 2.69327V3.76127L13.0391 6.29777ZM5.32929 8.76752L7.33183 7.59939V2.69327C6.97582 2.72664 6.63094 2.80719 6.29718 2.9349C5.96343 3.06306 5.6408 3.21614 5.32929 3.39414V8.76752ZM3.09313 10.0691L3.99427 9.53514V4.49552C3.56038 4.98502 3.22952 5.53014 3.00168 6.13089C2.77339 6.73164 2.65924 7.35464 2.65924 7.99989C2.65924 8.35589 2.69529 8.709 2.76738 9.05921C2.83992 9.40987 2.9485 9.74652 3.09313 10.0691ZM5.32929 12.6056L10.0019 9.93564L7.99934 8.76752L3.76064 11.2373C3.98314 11.5154 4.22233 11.7713 4.47821 12.0049C4.73409 12.2385 5.01779 12.4388 5.32929 12.6056V12.6056ZM7.99934 13.3399C8.83373 13.3399 9.62362 13.1508 10.369 12.7725C11.1144 12.3943 11.7374 11.8714 12.238 11.2039L11.3369 10.7033L6.93132 13.2398C7.10932 13.2731 7.28733 13.2981 7.46533 13.3145C7.64333 13.3314 7.82134 13.3399 7.99934 13.3399V13.3399ZM12.9056 10.0691C13.0502 9.74652 13.1585 9.40987 13.2306 9.05921C13.3032 8.709 13.3394 8.35589 13.3394 7.99989L8.66685 5.29652V7.59939L12.9056 10.0691ZM7.99934 14.6749C7.07595 14.6749 6.20818 14.4996 5.39604 14.1489C4.5839 13.7987 3.87745 13.3232 3.27669 12.7225C2.67593 12.1217 2.20044 11.4153 1.85022 10.6031C1.49955 9.79102 1.32422 8.92327 1.32422 7.99989C1.32422 7.07652 1.49955 6.20877 1.85022 5.39664C2.20044 4.58452 2.67593 3.87808 3.27669 3.27733C3.87745 2.67658 4.5839 2.20087 5.39604 1.85021C6.20818 1.5 7.07595 1.32489 7.99934 1.32489C8.92273 1.32489 9.7905 1.5 10.6026 1.85021C11.4148 2.20087 12.1212 2.67658 12.722 3.27733C13.3228 3.87808 13.7982 4.58452 14.1485 5.39664C14.4991 6.20877 14.6745 7.07652 14.6745 7.99989C14.6745 8.92327 14.4991 9.79102 14.1485 10.6031C13.7982 11.4153 13.3228 12.1217 12.722 12.7225C12.1212 13.3232 11.4148 13.7987 10.6026 14.1489C9.7905 14.4996 8.92273 14.6749 7.99934 14.6749Z" fill="#1D78EB"/>
</svg>
